<svg width="20" height="20" viewBox="0 0 20 20" fill="none" xmlns="http://www.w3.org/2000/svg">
<g id="fi_3281306" clip-path="url(#clip0_209_49270)">
<g id="Group 22">
<path id="Vector" d="M1.93628 18.4291L3.37292 18.7807L4.80952 18.4291V17.7246L3.37292 17.373L1.93628 17.7246V18.4291Z" fill="#F9CF58"/>
<path id="Vector_2" d="M6.35425 18.4291L7.79089 18.7807L9.22753 18.4291V17.7246L7.79089 17.373L6.35425 17.7246V18.4291Z" fill="#FFAC3E"/>
<path id="Vector_3" d="M10.7725 18.4291L12.2091 18.7807L13.6457 18.4291V17.7246L12.2091 17.373L10.7725 17.7246V18.4291Z" fill="#82D361"/>
<path id="Vector_4" d="M15.1906 18.4291L16.6272 18.7807L18.0638 18.4291V17.7246L16.6272 17.373L15.1906 17.7246V18.4291Z" fill="#6CC4FF"/>
<path id="Vector_5" d="M4.80952 17.7246H1.93628V14.8821C1.93628 14.666 2.11151 14.4907 2.32769 14.4907H4.41819C4.63437 14.4907 4.8096 14.666 4.8096 14.8821V17.7246H4.80952Z" fill="#FFE27A"/>
<path id="Vector_6" d="M9.22753 17.7246H6.35425V12.7459C6.35425 12.5297 6.52948 12.3545 6.74565 12.3545H8.83612C9.05229 12.3545 9.22753 12.5297 9.22753 12.7459V17.7246Z" fill="#FFBA57"/>
<path id="Vector_7" d="M13.6457 17.7247H10.7725V10.6097C10.7725 10.3935 10.9477 10.2183 11.1639 10.2183H13.2544C13.4705 10.2183 13.6458 10.3935 13.6458 10.6097V17.7247H13.6457Z" fill="#98DB7C"/>
<path id="Vector_8" d="M18.0638 17.7247H15.1906V8.47344C15.1906 8.25727 15.3658 8.08203 15.582 8.08203H17.6725C17.8886 8.08203 18.0639 8.25727 18.0639 8.47344L18.0638 17.7247Z" fill="#8BCAFF"/>
<path id="Vector_9" d="M16.4827 4.5947L16.1379 1.16013C16.1259 1.04063 16.0101 0.960008 15.8939 0.990281L12.551 1.86091C12.3892 1.90305 12.3514 2.11552 12.4886 2.21095L13.3619 2.81809C13.3619 2.81809 11.1223 7.18563 3.03052 9.68282V9.9011C5.25071 9.91325 11.0545 9.27829 14.6945 4.38692L15.3026 4.16747L16.1763 4.77489C16.3134 4.87028 16.4994 4.76095 16.4827 4.5947Z" fill="#FF4755"/>
<path id="Vector_10" d="M14.9521 3.91955C14.865 3.85802 14.7452 3.87795 14.6815 3.96349C11.0415 8.85486 6.37161 9.47084 3.16294 9.69373C3.11568 9.69701 3.07243 9.69228 3.03298 9.68174L3.03013 9.68263C2.61626 9.81318 2.7322 10.4282 3.16513 10.3981C6.40755 10.1725 11.7598 9.01459 15.3026 4.16717L14.9521 3.91955Z" fill="#FC2B3A"/>
<path id="Vector_11" d="M19.7064 19.0163H0.293555C0.131445 19.0163 0 18.8849 0 18.7228C0 18.5606 0.131406 18.4292 0.293555 18.4292H19.7065C19.8686 18.4292 20 18.5606 20 18.7228C20 18.8849 19.8686 19.0163 19.7064 19.0163Z" fill="#407093"/>
</g>
</g>
<defs>
<clipPath id="clip0_209_49270">
<rect width="20" height="20" fill="white"/>
</clipPath>
</defs>
</svg>
